<?xml version="1.0" encoding="UTF-8" standalone="no"?>
<!-- Created with Inkscape (http://www.inkscape.org/) -->
<svg
   xmlns:i="http://ns.adobe.com/AdobeIllustrator/10.0/"
   xmlns:dc="http://purl.org/dc/elements/1.1/"
   xmlns:cc="http://web.resource.org/cc/"
   xmlns:rdf="http://www.w3.org/1999/02/22-rdf-syntax-ns#"
   xmlns:svg="http://www.w3.org/2000/svg"
   xmlns="http://www.w3.org/2000/svg"
   xmlns:sodipodi="http://sodipodi.sourceforge.net/DTD/sodipodi-0.dtd"
   xmlns:inkscape="http://www.inkscape.org/namespaces/inkscape"
   width="744.09448819"
   height="1052.3622047"
   id="svg2084"
   sodipodi:version="0.32"
   inkscape:version="0.44"
   sodipodi:docbase="/home/nathan/Projects/mozcc2/trunk/chrome/skin/images"
   sodipodi:docname="deed_icons.svg">
  <defs
     id="defs2086">
						
						
							
					</defs>
  <sodipodi:namedview
     id="base"
     pagecolor="#ffffff"
     bordercolor="#666666"
     borderopacity="1.0"
     gridtolerance="10000"
     guidetolerance="10"
     objecttolerance="10"
     inkscape:pageopacity="0.0"
     inkscape:pageshadow="2"
     inkscape:zoom="1.0455661"
     inkscape:cx="268.75392"
     inkscape:cy="714.98427"
     inkscape:document-units="px"
     inkscape:current-layer="layer1"
     inkscape:window-width="872"
     inkscape:window-height="617"
     inkscape:window-x="5"
     inkscape:window-y="20"
     showgrid="true"
     inkscape:grid-points="true" />
  <metadata
     id="metadata2089">
    <rdf:RDF>
      <cc:Work
         rdf:about="">
        <dc:format>image/svg+xml</dc:format>
        <dc:type
           rdf:resource="http://purl.org/dc/dcmitype/StillImage" />
      </cc:Work>
    </rdf:RDF>
  </metadata>
  <g
     inkscape:label="Layer 1"
     inkscape:groupmode="layer"
     id="layer1">
    <g
       id="g1991"
       transform="translate(200,305.5752)"
       inkscape:export-filename="/home/nathan/Projects/mozcc2/trunk/chrome/skin/images/by-sa.png"
       inkscape:export-xdpi="21.09375"
       inkscape:export-ydpi="21.09375"
       style="fill:#cbcbcb;fill-opacity:1">
						<path
   i:knockout="Off"
   clip-rule="evenodd"
   d="M 31.959,176.787 C 23.095,176.787 15.592,179.88 9.452,186.067 C 3.149,192.467 0,200.04 0,208.787 C 0,217.533 3.149,225.054 9.452,231.347 C 15.752,237.641 23.256,240.787 31.959,240.787 C 40.77,240.787 48.407,237.614 54.869,231.267 C 60.956,225.241 64,217.746 64,208.787 C 64,199.827 60.903,192.253 54.709,186.067 C 48.513,179.88 40.93,176.787 31.959,176.787 z M 32.04,182.546 C 39.303,182.546 45.47,185.106 50.544,190.227 C 55.67,195.293 58.232,201.479 58.232,208.787 C 58.232,216.146 55.723,222.254 50.703,227.107 C 45.416,232.334 39.195,234.947 32.04,234.947 C 24.884,234.947 18.716,232.36 13.537,227.187 C 8.358,222.014 5.767,215.88 5.767,208.787 C 5.767,201.693 8.384,195.507 13.617,190.227 C 18.637,185.105 24.777,182.546 32.04,182.546 z "
   id="path1993"
   style="fill:#cbcbcb;fill-opacity:1;fill-rule:evenodd" />

						<g
   id="g1995"
   style="fill:#cbcbcb;fill-opacity:1">
							<path
   i:knockout="Off"
   clip-rule="evenodd"
   d="M 15.235,217.597 L 23.263,217.597 C 27.748,217.597 30.474,216.211 30.474,212.573 C 30.474,209.974 28.541,208.712 26.138,208.539 L 26.138,208.489 C 28.542,207.945 29.83,206.757 29.83,204.505 C 29.83,201.213 27.427,199.976 23.858,199.976 L 15.235,199.976 L 15.235,217.597 L 15.235,217.597 z M 19.497,210.172 L 23.883,210.172 C 25.518,210.172 26.064,210.816 26.064,212.276 C 26.064,213.415 25.419,214.33 23.09,214.33 L 19.497,214.33 L 19.497,210.172 z M 19.447,203.243 L 23.114,203.243 C 24.576,203.243 25.418,203.59 25.418,205.075 C 25.418,206.362 24.526,206.907 23.114,206.907 L 19.447,206.907 L 19.447,203.243 z "
   id="path1997"
   style="fill:#cbcbcb;fill-opacity:1;fill-rule:evenodd" />

							<polygon
   i:knockout="Off"
   clip-rule="evenodd"
   points="36.052,217.597 40.462,217.597 40.462,209.38 47.153,199.976 41.999,199.976 38.257,206.064 34.515,199.976 29.361,199.976 36.052,209.38 36.052,217.597 "
   id="polygon1999"
   style="fill:#cbcbcb;fill-opacity:1;fill-rule:evenodd" />

							<path
   i:knockout="Off"
   clip-rule="evenodd"
   d="M 48.765,208.787 L 48.765,204.629 L 44.75,204.629 L 44.75,208.787 L 48.765,208.787 z M 48.765,217.597 L 48.765,213.439 L 44.75,213.439 L 44.75,217.597 L 48.765,217.597 z "
   id="path2001"
   style="fill:#cbcbcb;fill-opacity:1;fill-rule:evenodd" />

						</g>

					</g>
    <g
       id="g2015"
       transform="translate(280,214.7452)"
       inkscape:export-filename="/home/nathan/Projects/mozcc2/trunk/chrome/skin/images/by-sa.png"
       inkscape:export-xdpi="21.09375"
       inkscape:export-ydpi="21.09375"
       style="fill:#cbcbcb;fill-opacity:1">
						<path
   i:knockout="Off"
   clip-rule="evenodd"
   d="M 31.959,267.617 C 23.095,267.617 15.592,270.71 9.452,276.896 C 3.149,283.296 0,290.871 0,299.617 C 0,308.363 3.149,315.885 9.452,322.178 C 15.752,328.472 23.256,331.617 31.959,331.617 C 40.77,331.617 48.407,328.444 54.869,322.097 C 60.956,316.071 64,308.576 64,299.617 C 64,290.658 60.903,283.084 54.709,276.896 C 48.513,270.709 40.93,267.617 31.959,267.617 z M 32.04,273.375 C 39.303,273.375 45.47,275.936 50.544,281.057 C 55.67,286.122 58.232,292.31 58.232,299.617 C 58.232,306.976 55.723,313.084 50.703,317.938 C 45.416,323.165 39.195,325.777 32.04,325.777 C 24.884,325.777 18.717,323.19 13.537,318.017 C 8.357,312.843 5.767,306.71 5.767,299.617 C 5.767,292.524 8.384,286.337 13.617,281.057 C 18.637,275.936 24.777,273.375 32.04,273.375 z "
   id="path2017"
   style="fill:#cbcbcb;fill-opacity:1;fill-rule:evenodd" />

						<path
   i:knockout="Off"
   d="M 17.775,295.1 C 19.052,287.049 24.719,282.745 31.822,282.745 C 42.038,282.745 48.264,290.159 48.264,300.043 C 48.264,309.689 41.639,317.182 31.662,317.182 C 24.798,317.182 18.653,312.957 17.535,304.667 L 25.597,304.667 C 25.836,308.972 28.63,310.486 32.62,310.486 C 37.169,310.486 40.123,306.26 40.123,299.803 C 40.123,293.028 37.568,289.441 32.779,289.441 C 29.268,289.441 26.235,290.716 25.596,295.1 L 27.939,295.087 L 21.594,301.432 L 15.249,295.087 L 17.775,295.1 z "
   id="path2019"
   style="fill:#cbcbcb;fill-opacity:1" />

					</g>
    <g
       id="g1983"
       transform="translate(10.08242,154.9008)"
       style="fill:#cbcbcb;fill-opacity:1">
						<path
   i:knockout="Off"
   clip-rule="evenodd"
   d="M 31.959,364.794 C 23.095,364.794 15.592,367.888 9.452,374.074 C 3.149,380.475 0,388.048 0,396.795 C 0,405.541 3.149,413.063 9.452,419.355 C 15.752,425.649 23.256,428.795 31.959,428.795 C 40.77,428.795 48.407,425.622 54.869,419.275 C 60.956,413.25 64,405.754 64,396.795 C 64,387.834 60.903,380.261 54.709,374.074 C 48.513,367.888 40.93,364.794 31.959,364.794 z M 32.04,370.554 C 39.303,370.554 45.47,373.115 50.544,378.235 C 55.67,383.301 58.232,389.488 58.232,396.796 C 58.232,404.155 55.723,410.263 50.703,415.116 C 45.416,420.343 39.195,422.955 32.04,422.955 C 24.884,422.955 18.716,420.368 13.537,415.195 C 8.357,410.021 5.767,403.888 5.767,396.796 C 5.767,389.701 8.384,383.516 13.617,378.235 C 18.637,373.115 24.777,370.554 32.04,370.554 z "
   id="path1985"
   style="fill-rule:evenodd;fill:#cbcbcb;fill-opacity:1" />

						<g
   id="g1987"
   style="fill:#cbcbcb;fill-opacity:1">
							<path
   i:knockout="Off"
   clip-rule="evenodd"
   d="M 44.09,389.212 L 20.83,389.212 L 20.83,394.721 L 44.09,394.721 L 44.09,389.212 z M 44.09,399.496 L 20.83,399.496 L 20.83,405.006 L 44.09,405.006 L 44.09,399.496 z "
   id="path1989"
   style="fill-rule:evenodd;fill:#cbcbcb;fill-opacity:1" />

						</g>

					</g>
    <g
       id="g3013"
       transform="translate(10.08242,154.9008)"
       style="fill:#cbcbcb;fill-opacity:1">
						<path
   i:knockout="Off"
   clip-rule="evenodd"
   d="M 31.959,176.787 C 23.095,176.787 15.592,179.88 9.452,186.067 C 3.149,192.467 0,200.04 0,208.787 C 0,217.533 3.149,225.054 9.452,231.347 C 15.752,237.641 23.256,240.787 31.959,240.787 C 40.77,240.787 48.407,237.614 54.869,231.267 C 60.956,225.241 64,217.746 64,208.787 C 64,199.827 60.903,192.253 54.709,186.067 C 48.513,179.88 40.93,176.787 31.959,176.787 z M 32.04,182.546 C 39.303,182.546 45.47,185.106 50.544,190.227 C 55.67,195.293 58.232,201.479 58.232,208.787 C 58.232,216.146 55.723,222.254 50.703,227.107 C 45.416,232.334 39.195,234.947 32.04,234.947 C 24.884,234.947 18.716,232.36 13.537,227.187 C 8.358,222.014 5.767,215.88 5.767,208.787 C 5.767,201.693 8.384,195.507 13.617,190.227 C 18.637,185.105 24.777,182.546 32.04,182.546 z "
   id="path3015"
   style="fill-rule:evenodd;fill:#cbcbcb;fill-opacity:1" />

						<g
   id="g3017"
   style="fill:#cbcbcb;fill-opacity:1">
							<path
   i:knockout="Off"
   clip-rule="evenodd"
   d="M 15.235,217.597 L 23.263,217.597 C 27.748,217.597 30.474,216.211 30.474,212.573 C 30.474,209.974 28.541,208.712 26.138,208.539 L 26.138,208.489 C 28.542,207.945 29.83,206.757 29.83,204.505 C 29.83,201.213 27.427,199.976 23.858,199.976 L 15.235,199.976 L 15.235,217.597 L 15.235,217.597 z M 19.497,210.172 L 23.883,210.172 C 25.518,210.172 26.064,210.816 26.064,212.276 C 26.064,213.415 25.419,214.33 23.09,214.33 L 19.497,214.33 L 19.497,210.172 z M 19.447,203.243 L 23.114,203.243 C 24.576,203.243 25.418,203.59 25.418,205.075 C 25.418,206.362 24.526,206.907 23.114,206.907 L 19.447,206.907 L 19.447,203.243 z "
   id="path3019"
   style="fill-rule:evenodd;fill:#cbcbcb;fill-opacity:1" />

							<polygon
   i:knockout="Off"
   clip-rule="evenodd"
   points="36.052,217.597 40.462,217.597 40.462,209.38 47.153,199.976 41.999,199.976 38.257,206.064 34.515,199.976 29.361,199.976 36.052,209.38 36.052,217.597 "
   id="polygon3021"
   style="fill-rule:evenodd;fill:#cbcbcb;fill-opacity:1" />

							<path
   i:knockout="Off"
   clip-rule="evenodd"
   d="M 48.765,208.787 L 48.765,204.629 L 44.75,204.629 L 44.75,208.787 L 48.765,208.787 z M 48.765,217.597 L 48.765,213.439 L 44.75,213.439 L 44.75,217.597 L 48.765,217.597 z "
   id="path3023"
   style="fill-rule:evenodd;fill:#cbcbcb;fill-opacity:1" />

						</g>

					</g>
    <g
       id="g2003"
       transform="translate(10.08242,154.9008)"
       style="fill:#cbcbcb;fill-opacity:1">
						<path
   i:knockout="Off"
   clip-rule="evenodd"
   d="M 31.959,83.787 C 23.095,83.787 15.592,86.88 9.452,93.067 C 3.149,99.467 0,107.04 0,115.787 C 0,124.533 3.149,132.054 9.452,138.347 C 15.752,144.641 23.256,147.787 31.959,147.787 C 40.77,147.787 48.407,144.614 54.869,138.267 C 60.956,132.241 64,124.746 64,115.787 C 64,106.827 60.903,99.253 54.709,93.067 C 48.513,86.88 40.93,83.787 31.959,83.787 z M 32.04,89.546 C 39.303,89.546 45.47,92.106 50.544,97.227 C 55.67,102.293 58.232,108.479 58.232,115.787 C 58.232,123.146 55.723,129.254 50.703,134.107 C 45.416,139.334 39.195,141.947 32.04,141.947 C 24.884,141.947 18.716,139.36 13.537,134.187 C 8.358,129.014 5.767,122.88 5.767,115.787 C 5.767,108.693 8.384,102.507 13.617,97.227 C 18.637,92.105 24.777,89.546 32.04,89.546 z "
   id="path2005"
   style="fill-rule:evenodd;fill:#cbcbcb;fill-opacity:1" />

						<g
   id="g2007"
   style="fill:#cbcbcb;fill-opacity:1">
							<path
   i:knockout="Off"
   clip-rule="evenodd"
   d="M 21.399,110.049 L 25.001,110.049 C 27.013,110.049 27.857,111.018 27.857,112.781 C 27.857,114.147 27.137,115.464 25.125,115.464 L 21.399,115.464 L 21.399,110.049 z M 16.978,124.457 L 21.45,124.457 L 21.45,118.744 L 24.903,118.744 C 30.965,118.744 32.281,115.117 32.281,112.757 C 32.281,109.255 30.517,106.77 25.748,106.77 L 16.979,106.77 L 16.979,124.457 L 16.978,124.457 z "
   id="path2009"
   style="fill-rule:evenodd;fill:#cbcbcb;fill-opacity:1" />

							<path
   i:knockout="Off"
   clip-rule="evenodd"
   d="M 33.484,124.457 L 40.34,124.457 C 45.731,124.457 49.357,121.898 49.357,115.613 C 49.357,109.328 45.731,106.77 40.34,106.77 L 33.484,106.77 L 33.484,124.457 z M 37.905,110.496 L 40.415,110.496 C 43.743,110.496 44.936,112.757 44.936,115.613 C 44.936,118.47 43.743,120.731 40.44,120.731 L 37.905,120.731 L 37.905,110.496 z "
   id="path2011"
   style="fill-rule:evenodd;fill:#cbcbcb;fill-opacity:1" />

						</g>

					</g>
    <path
       i:knockout="Off"
       d="M 42.041463,608.04686 C 51.012463,608.04686 58.595463,611.14086 64.791463,617.32586 C 70.985463,623.51386 74.082463,631.08686 74.082463,640.04686 C 74.082463,649.00686 71.038463,656.50086 64.951463,662.52686 C 58.489463,668.87386 50.852463,672.04686 42.041463,672.04686 C 33.337463,672.04686 25.834463,668.90086 19.534463,662.60786 C 13.231463,656.31486 10.082463,648.79286 10.082463,640.04686 C 10.082463,631.30086 13.231463,623.72686 19.534463,617.32586 C 25.674463,611.14086 33.177463,608.04686 42.041463,608.04686 z M 17.281463,631.45086 C 16.326463,634.15086 15.848463,637.01586 15.848463,640.04686 C 15.848463,647.14086 18.438463,653.27386 23.618463,658.44586 C 28.798463,663.61986 34.965463,666.20686 42.121463,666.20686 C 49.276463,666.20686 55.497463,663.59486 60.784463,658.36686 C 62.554463,656.65586 64.012463,654.79086 65.156463,652.76786 L 53.093463,647.39586 C 52.276463,651.45486 48.658463,654.19686 44.285463,654.51886 L 44.285463,659.45186 L 40.612463,659.45186 L 40.612463,654.51886 C 37.020463,654.47786 33.551463,653.00986 30.898463,650.68686 L 35.306463,646.24286 C 37.429463,648.24086 39.551463,649.13886 42.449463,649.13886 C 44.326463,649.13886 46.408463,648.40486 46.408463,645.95786 C 46.408463,645.09086 46.071463,644.48786 45.543463,644.03486 L 42.493463,642.67686 L 38.326463,641.35186 C 36.273463,640.68886 34.696463,639.87586 33.625463,638.72986 L 17.281463,631.45086 z M 42.122463,613.80586 C 34.859463,613.80586 28.719463,616.36686 23.699463,621.48686 C 22.333463,622.86686 21.144463,624.30586 20.135463,625.80886 L 32.368463,631.25486 C 33.472463,627.86086 36.698463,625.80486 40.613463,625.57386 L 40.613463,620.64086 L 44.286463,620.64086 L 44.286463,625.57386 C 46.817463,625.69586 49.593463,626.38886 52.327463,628.50986 L 48.123463,632.83086 C 46.572463,631.72986 44.613463,630.95486 42.653463,630.95486 C 41.062463,630.95486 38.817463,631.44486 38.817463,633.44186 C 38.817463,633.74686 38.919463,634.01486 39.105463,634.25386 L 43.197463,636.07486 L 46.247463,637.02886 C 48.211463,637.62486 49.886463,638.39386 51.105463,639.59586 L 67.501463,646.89686 C 68.044463,644.74886 68.314463,642.46386 68.314463,640.04486 C 68.314463,632.73686 65.752463,626.55186 60.626463,621.48386 C 55.551463,616.36586 49.384463,613.80586 42.122463,613.80586 z "
       id="path2013"
       style="fill:#cbcbcb;fill-opacity:1" />
    <g
       id="g3031"
       transform="translate(10.08242,154.9008)"
       style="fill:#cbcbcb;fill-opacity:1">
						<path
   i:knockout="Off"
   clip-rule="evenodd"
   d="M 31.959,267.617 C 23.095,267.617 15.592,270.71 9.452,276.896 C 3.149,283.296 0,290.871 0,299.617 C 0,308.363 3.149,315.885 9.452,322.178 C 15.752,328.472 23.256,331.617 31.959,331.617 C 40.77,331.617 48.407,328.444 54.869,322.097 C 60.956,316.071 64,308.576 64,299.617 C 64,290.658 60.903,283.084 54.709,276.896 C 48.513,270.709 40.93,267.617 31.959,267.617 z M 32.04,273.375 C 39.303,273.375 45.47,275.936 50.544,281.057 C 55.67,286.122 58.232,292.31 58.232,299.617 C 58.232,306.976 55.723,313.084 50.703,317.938 C 45.416,323.165 39.195,325.777 32.04,325.777 C 24.884,325.777 18.717,323.19 13.537,318.017 C 8.357,312.843 5.767,306.71 5.767,299.617 C 5.767,292.524 8.384,286.337 13.617,281.057 C 18.637,275.936 24.777,273.375 32.04,273.375 z "
   id="path3033"
   style="fill-rule:evenodd;fill:#cbcbcb;fill-opacity:1" />

						<path
   i:knockout="Off"
   d="M 17.775,295.1 C 19.052,287.049 24.719,282.745 31.822,282.745 C 42.038,282.745 48.264,290.159 48.264,300.043 C 48.264,309.689 41.639,317.182 31.662,317.182 C 24.798,317.182 18.653,312.957 17.535,304.667 L 25.597,304.667 C 25.836,308.972 28.63,310.486 32.62,310.486 C 37.169,310.486 40.123,306.26 40.123,299.803 C 40.123,293.028 37.568,289.441 32.779,289.441 C 29.268,289.441 26.235,290.716 25.596,295.1 L 27.939,295.087 L 21.594,301.432 L 15.249,295.087 L 17.775,295.1 z "
   id="path3035"
   style="fill:#cbcbcb;fill-opacity:1" />

					</g>
    <g
       id="g3054">
      <path
         i:knockout="Off"
         clip-rule="evenodd"
         d="M 42.04142,154.9008 C 33.17742,154.9008 25.67442,157.9938 19.53442,164.1808 C 13.23142,170.5808 10.08242,178.1538 10.08242,186.9008 C 10.08242,195.6478 13.23142,203.1678 19.53442,209.4608 C 25.83442,215.7548 33.33842,218.9008 42.04142,218.9008 C 50.85242,218.9008 58.48942,215.7278 64.95142,209.3818 C 71.03842,203.3548 74.08242,195.8608 74.08242,186.9008 C 74.08242,177.9408 70.98542,170.3668 64.79142,164.1808 C 58.59542,157.9938 51.01242,154.9008 42.04142,154.9008 z M 42.12242,160.6608 C 49.38542,160.6608 55.55242,163.2208 60.62642,168.3408 C 65.75242,173.4068 68.31442,179.5938 68.31442,186.9008 C 68.31442,194.2608 65.80542,200.3678 60.78542,205.2218 C 55.49842,210.4488 49.27742,213.0608 42.12242,213.0608 C 34.96642,213.0608 28.79842,210.4738 23.61942,205.3008 C 18.44042,200.1278 15.84942,193.9948 15.84942,186.9008 C 15.84942,179.8078 18.46642,173.6208 23.69942,168.3408 C 28.71942,163.2198 34.85942,160.6608 42.12242,160.6608 z "
         id="path2023"
         style="fill:#cbcbcb;fill-opacity:1;fill-rule:evenodd" />
      <polyline
         transform="translate(10.08242,154.9008)"
         i:knockout="Off"
         clip-rule="evenodd"
         stroke-miterlimit="3.8637"
         points="        11.291,33.791 17.904,33.791 20.008,29.365 22.113,43.687 24.217,19.261 26.321,48.196 28.426,16.255 30.53,48.572 32.634,14         34.739,47.444 36.843,20.388 38.948,48.196 41.052,22.643 43.157,40.317 45.862,33.791 53.377,33.791 "
         id="polyline2025"
         style="fill:#cbcbcb;fill-opacity:1;fill-rule:evenodd;stroke:#ccc;stroke-width:3;stroke-linejoin:round;stroke-miterlimit:3.86369991;stroke-opacity:1" />
    </g>
    <g
       id="g3058"
       transform="translate(200,385.5752)"
       style="fill:#cbcbcb;fill-opacity:1"
       inkscape:export-filename="/home/nathan/Projects/mozcc2/trunk/chrome/skin/images/by.png"
       inkscape:export-xdpi="21.09375"
       inkscape:export-ydpi="21.09375">
						<path
   i:knockout="Off"
   clip-rule="evenodd"
   d="M 31.959,176.787 C 23.095,176.787 15.592,179.88 9.452,186.067 C 3.149,192.467 0,200.04 0,208.787 C 0,217.533 3.149,225.054 9.452,231.347 C 15.752,237.641 23.256,240.787 31.959,240.787 C 40.77,240.787 48.407,237.614 54.869,231.267 C 60.956,225.241 64,217.746 64,208.787 C 64,199.827 60.903,192.253 54.709,186.067 C 48.513,179.88 40.93,176.787 31.959,176.787 z M 32.04,182.546 C 39.303,182.546 45.47,185.106 50.544,190.227 C 55.67,195.293 58.232,201.479 58.232,208.787 C 58.232,216.146 55.723,222.254 50.703,227.107 C 45.416,232.334 39.195,234.947 32.04,234.947 C 24.884,234.947 18.716,232.36 13.537,227.187 C 8.358,222.014 5.767,215.88 5.767,208.787 C 5.767,201.693 8.384,195.507 13.617,190.227 C 18.637,185.105 24.777,182.546 32.04,182.546 z "
   id="path3060"
   style="fill:#cbcbcb;fill-opacity:1;fill-rule:evenodd" />

						<g
   id="g3062"
   style="fill:#cbcbcb;fill-opacity:1">
							<path
   i:knockout="Off"
   clip-rule="evenodd"
   d="M 15.235,217.597 L 23.263,217.597 C 27.748,217.597 30.474,216.211 30.474,212.573 C 30.474,209.974 28.541,208.712 26.138,208.539 L 26.138,208.489 C 28.542,207.945 29.83,206.757 29.83,204.505 C 29.83,201.213 27.427,199.976 23.858,199.976 L 15.235,199.976 L 15.235,217.597 L 15.235,217.597 z M 19.497,210.172 L 23.883,210.172 C 25.518,210.172 26.064,210.816 26.064,212.276 C 26.064,213.415 25.419,214.33 23.09,214.33 L 19.497,214.33 L 19.497,210.172 z M 19.447,203.243 L 23.114,203.243 C 24.576,203.243 25.418,203.59 25.418,205.075 C 25.418,206.362 24.526,206.907 23.114,206.907 L 19.447,206.907 L 19.447,203.243 z "
   id="path3064"
   style="fill:#cbcbcb;fill-opacity:1;fill-rule:evenodd" />

							<polygon
   i:knockout="Off"
   clip-rule="evenodd"
   points="36.052,217.597 40.462,217.597 40.462,209.38 47.153,199.976 41.999,199.976 38.257,206.064 34.515,199.976 29.361,199.976 36.052,209.38 36.052,217.597 "
   id="polygon3066"
   style="fill:#cbcbcb;fill-opacity:1;fill-rule:evenodd" />

							<path
   i:knockout="Off"
   clip-rule="evenodd"
   d="M 48.765,208.787 L 48.765,204.629 L 44.75,204.629 L 44.75,208.787 L 48.765,208.787 z M 48.765,217.597 L 48.765,213.439 L 44.75,213.439 L 44.75,217.597 L 48.765,217.597 z "
   id="path3068"
   style="fill:#cbcbcb;fill-opacity:1;fill-rule:evenodd" />

						</g>

					</g>
    <g
       id="g3070"
       transform="translate(200,225.5752)"
       style="fill:#cbcbcb;fill-opacity:1"
       inkscape:export-filename="/home/nathan/Projects/mozcc2/trunk/chrome/skin/images/by-nd.png"
       inkscape:export-xdpi="21.09375"
       inkscape:export-ydpi="21.09375">
						<path
   i:knockout="Off"
   clip-rule="evenodd"
   d="M 31.959,176.787 C 23.095,176.787 15.592,179.88 9.452,186.067 C 3.149,192.467 0,200.04 0,208.787 C 0,217.533 3.149,225.054 9.452,231.347 C 15.752,237.641 23.256,240.787 31.959,240.787 C 40.77,240.787 48.407,237.614 54.869,231.267 C 60.956,225.241 64,217.746 64,208.787 C 64,199.827 60.903,192.253 54.709,186.067 C 48.513,179.88 40.93,176.787 31.959,176.787 z M 32.04,182.546 C 39.303,182.546 45.47,185.106 50.544,190.227 C 55.67,195.293 58.232,201.479 58.232,208.787 C 58.232,216.146 55.723,222.254 50.703,227.107 C 45.416,232.334 39.195,234.947 32.04,234.947 C 24.884,234.947 18.716,232.36 13.537,227.187 C 8.358,222.014 5.767,215.88 5.767,208.787 C 5.767,201.693 8.384,195.507 13.617,190.227 C 18.637,185.105 24.777,182.546 32.04,182.546 z "
   id="path3072"
   style="fill:#cbcbcb;fill-opacity:1;fill-rule:evenodd" />

						<g
   id="g3074"
   style="fill:#cbcbcb;fill-opacity:1">
							<path
   i:knockout="Off"
   clip-rule="evenodd"
   d="M 15.235,217.597 L 23.263,217.597 C 27.748,217.597 30.474,216.211 30.474,212.573 C 30.474,209.974 28.541,208.712 26.138,208.539 L 26.138,208.489 C 28.542,207.945 29.83,206.757 29.83,204.505 C 29.83,201.213 27.427,199.976 23.858,199.976 L 15.235,199.976 L 15.235,217.597 L 15.235,217.597 z M 19.497,210.172 L 23.883,210.172 C 25.518,210.172 26.064,210.816 26.064,212.276 C 26.064,213.415 25.419,214.33 23.09,214.33 L 19.497,214.33 L 19.497,210.172 z M 19.447,203.243 L 23.114,203.243 C 24.576,203.243 25.418,203.59 25.418,205.075 C 25.418,206.362 24.526,206.907 23.114,206.907 L 19.447,206.907 L 19.447,203.243 z "
   id="path3076"
   style="fill:#cbcbcb;fill-opacity:1;fill-rule:evenodd" />

							<polygon
   i:knockout="Off"
   clip-rule="evenodd"
   points="36.052,217.597 40.462,217.597 40.462,209.38 47.153,199.976 41.999,199.976 38.257,206.064 34.515,199.976 29.361,199.976 36.052,209.38 36.052,217.597 "
   id="polygon3078"
   style="fill:#cbcbcb;fill-opacity:1;fill-rule:evenodd" />

							<path
   i:knockout="Off"
   clip-rule="evenodd"
   d="M 48.765,208.787 L 48.765,204.629 L 44.75,204.629 L 44.75,208.787 L 48.765,208.787 z M 48.765,217.597 L 48.765,213.439 L 44.75,213.439 L 44.75,217.597 L 48.765,217.597 z "
   id="path3080"
   style="fill:#cbcbcb;fill-opacity:1;fill-rule:evenodd" />

						</g>

					</g>
    <g
       id="g3082"
       transform="translate(280,37.5682)"
       style="fill:#cbcbcb;fill-opacity:1"
       inkscape:export-filename="/home/nathan/Projects/mozcc2/trunk/chrome/skin/images/by-nd.png"
       inkscape:export-xdpi="21.09375"
       inkscape:export-ydpi="21.09375">
						<path
   i:knockout="Off"
   clip-rule="evenodd"
   d="M 31.959,364.794 C 23.095,364.794 15.592,367.888 9.452,374.074 C 3.149,380.475 0,388.048 0,396.795 C 0,405.541 3.149,413.063 9.452,419.355 C 15.752,425.649 23.256,428.795 31.959,428.795 C 40.77,428.795 48.407,425.622 54.869,419.275 C 60.956,413.25 64,405.754 64,396.795 C 64,387.834 60.903,380.261 54.709,374.074 C 48.513,367.888 40.93,364.794 31.959,364.794 z M 32.04,370.554 C 39.303,370.554 45.47,373.115 50.544,378.235 C 55.67,383.301 58.232,389.488 58.232,396.796 C 58.232,404.155 55.723,410.263 50.703,415.116 C 45.416,420.343 39.195,422.955 32.04,422.955 C 24.884,422.955 18.716,420.368 13.537,415.195 C 8.357,410.021 5.767,403.888 5.767,396.796 C 5.767,389.701 8.384,383.516 13.617,378.235 C 18.637,373.115 24.777,370.554 32.04,370.554 z "
   id="path3084"
   style="fill:#cbcbcb;fill-opacity:1;fill-rule:evenodd" />

						<g
   id="g3086"
   style="fill:#cbcbcb;fill-opacity:1">
							<path
   i:knockout="Off"
   clip-rule="evenodd"
   d="M 44.09,389.212 L 20.83,389.212 L 20.83,394.721 L 44.09,394.721 L 44.09,389.212 z M 44.09,399.496 L 20.83,399.496 L 20.83,405.006 L 44.09,405.006 L 44.09,399.496 z "
   id="path3088"
   style="fill:#cbcbcb;fill-opacity:1;fill-rule:evenodd" />

						</g>

					</g>
    <g
       id="g3104"
       transform="translate(360,-202.4318)"
       style="fill:#cbcbcb;fill-opacity:1"
       inkscape:export-filename="/home/nathan/Projects/mozcc2/trunk/chrome/skin/images/by-nc-nd.png"
       inkscape:export-xdpi="21.09375"
       inkscape:export-ydpi="21.09375">
						<path
   i:knockout="Off"
   clip-rule="evenodd"
   d="M 31.959,364.794 C 23.095,364.794 15.592,367.888 9.452,374.074 C 3.149,380.475 0,388.048 0,396.795 C 0,405.541 3.149,413.063 9.452,419.355 C 15.752,425.649 23.256,428.795 31.959,428.795 C 40.77,428.795 48.407,425.622 54.869,419.275 C 60.956,413.25 64,405.754 64,396.795 C 64,387.834 60.903,380.261 54.709,374.074 C 48.513,367.888 40.93,364.794 31.959,364.794 z M 32.04,370.554 C 39.303,370.554 45.47,373.115 50.544,378.235 C 55.67,383.301 58.232,389.488 58.232,396.796 C 58.232,404.155 55.723,410.263 50.703,415.116 C 45.416,420.343 39.195,422.955 32.04,422.955 C 24.884,422.955 18.716,420.368 13.537,415.195 C 8.357,410.021 5.767,403.888 5.767,396.796 C 5.767,389.701 8.384,383.516 13.617,378.235 C 18.637,373.115 24.777,370.554 32.04,370.554 z "
   id="path3106"
   style="fill:#cbcbcb;fill-opacity:1;fill-rule:evenodd" />

						<g
   id="g3108"
   style="fill:#cbcbcb;fill-opacity:1">
							<path
   i:knockout="Off"
   clip-rule="evenodd"
   d="M 44.09,389.212 L 20.83,389.212 L 20.83,394.721 L 44.09,394.721 L 44.09,389.212 z M 44.09,399.496 L 20.83,399.496 L 20.83,405.006 L 44.09,405.006 L 44.09,399.496 z "
   id="path3110"
   style="fill:#cbcbcb;fill-opacity:1;fill-rule:evenodd" />

						</g>

					</g>
    <g
       id="g3112"
       transform="translate(200,-14.4248)"
       style="fill:#cbcbcb;fill-opacity:1"
       inkscape:export-filename="/home/nathan/Projects/mozcc2/trunk/chrome/skin/images/by-nc-nd.png"
       inkscape:export-xdpi="21.09375"
       inkscape:export-ydpi="21.09375">
						<path
   i:knockout="Off"
   clip-rule="evenodd"
   d="M 31.959,176.787 C 23.095,176.787 15.592,179.88 9.452,186.067 C 3.149,192.467 0,200.04 0,208.787 C 0,217.533 3.149,225.054 9.452,231.347 C 15.752,237.641 23.256,240.787 31.959,240.787 C 40.77,240.787 48.407,237.614 54.869,231.267 C 60.956,225.241 64,217.746 64,208.787 C 64,199.827 60.903,192.253 54.709,186.067 C 48.513,179.88 40.93,176.787 31.959,176.787 z M 32.04,182.546 C 39.303,182.546 45.47,185.106 50.544,190.227 C 55.67,195.293 58.232,201.479 58.232,208.787 C 58.232,216.146 55.723,222.254 50.703,227.107 C 45.416,232.334 39.195,234.947 32.04,234.947 C 24.884,234.947 18.716,232.36 13.537,227.187 C 8.358,222.014 5.767,215.88 5.767,208.787 C 5.767,201.693 8.384,195.507 13.617,190.227 C 18.637,185.105 24.777,182.546 32.04,182.546 z "
   id="path3114"
   style="fill:#cbcbcb;fill-opacity:1;fill-rule:evenodd" />

						<g
   id="g3116"
   style="fill:#cbcbcb;fill-opacity:1">
							<path
   i:knockout="Off"
   clip-rule="evenodd"
   d="M 15.235,217.597 L 23.263,217.597 C 27.748,217.597 30.474,216.211 30.474,212.573 C 30.474,209.974 28.541,208.712 26.138,208.539 L 26.138,208.489 C 28.542,207.945 29.83,206.757 29.83,204.505 C 29.83,201.213 27.427,199.976 23.858,199.976 L 15.235,199.976 L 15.235,217.597 L 15.235,217.597 z M 19.497,210.172 L 23.883,210.172 C 25.518,210.172 26.064,210.816 26.064,212.276 C 26.064,213.415 25.419,214.33 23.09,214.33 L 19.497,214.33 L 19.497,210.172 z M 19.447,203.243 L 23.114,203.243 C 24.576,203.243 25.418,203.59 25.418,205.075 C 25.418,206.362 24.526,206.907 23.114,206.907 L 19.447,206.907 L 19.447,203.243 z "
   id="path3118"
   style="fill:#cbcbcb;fill-opacity:1;fill-rule:evenodd" />

							<polygon
   i:knockout="Off"
   clip-rule="evenodd"
   points="36.052,217.597 40.462,217.597 40.462,209.38 47.153,199.976 41.999,199.976 38.257,206.064 34.515,199.976 29.361,199.976 36.052,209.38 36.052,217.597 "
   id="polygon3120"
   style="fill:#cbcbcb;fill-opacity:1;fill-rule:evenodd" />

							<path
   i:knockout="Off"
   clip-rule="evenodd"
   d="M 48.765,208.787 L 48.765,204.629 L 44.75,204.629 L 44.75,208.787 L 48.765,208.787 z M 48.765,217.597 L 48.765,213.439 L 44.75,213.439 L 44.75,217.597 L 48.765,217.597 z "
   id="path3122"
   style="fill:#cbcbcb;fill-opacity:1;fill-rule:evenodd" />

						</g>

					</g>
    <path
       i:knockout="Off"
       d="M 311.959,162.36218 C 320.93,162.36218 328.513,165.45618 334.709,171.64118 C 340.903,177.82918 344,185.40218 344,194.36218 C 344,203.32218 340.956,210.81618 334.869,216.84218 C 328.407,223.18918 320.77,226.36218 311.959,226.36218 C 303.255,226.36218 295.752,223.21618 289.452,216.92318 C 283.149,210.63018 280,203.10818 280,194.36218 C 280,185.61618 283.149,178.04218 289.452,171.64118 C 295.592,165.45618 303.095,162.36218 311.959,162.36218 z M 287.199,185.76618 C 286.244,188.46618 285.766,191.33118 285.766,194.36218 C 285.766,201.45618 288.356,207.58918 293.536,212.76118 C 298.716,217.93518 304.883,220.52218 312.039,220.52218 C 319.194,220.52218 325.415,217.91018 330.702,212.68218 C 332.472,210.97118 333.93,209.10618 335.074,207.08318 L 323.011,201.71118 C 322.194,205.77018 318.576,208.51218 314.203,208.83418 L 314.203,213.76718 L 310.53,213.76718 L 310.53,208.83418 C 306.938,208.79318 303.469,207.32518 300.816,205.00218 L 305.224,200.55818 C 307.347,202.55618 309.469,203.45418 312.367,203.45418 C 314.244,203.45418 316.326,202.72018 316.326,200.27318 C 316.326,199.40618 315.989,198.80318 315.461,198.35018 L 312.411,196.99218 L 308.244,195.66718 C 306.191,195.00418 304.614,194.19118 303.543,193.04518 L 287.199,185.76618 z M 312.04,168.12118 C 304.777,168.12118 298.637,170.68218 293.617,175.80218 C 292.251,177.18218 291.062,178.62118 290.053,180.12418 L 302.286,185.57018 C 303.39,182.17618 306.616,180.12018 310.531,179.88918 L 310.531,174.95618 L 314.204,174.95618 L 314.204,179.88918 C 316.735,180.01118 319.511,180.70418 322.245,182.82518 L 318.041,187.14618 C 316.49,186.04518 314.531,185.27018 312.571,185.27018 C 310.98,185.27018 308.735,185.76018 308.735,187.75718 C 308.735,188.06218 308.837,188.33018 309.023,188.56918 L 313.115,190.39018 L 316.165,191.34418 C 318.129,191.94018 319.804,192.70918 321.023,193.91118 L 337.419,201.21218 C 337.962,199.06418 338.232,196.77918 338.232,194.36018 C 338.232,187.05218 335.67,180.86718 330.544,175.79918 C 325.469,170.68118 319.302,168.12118 312.04,168.12118 z "
       id="path3124"
       style="fill:#cbcbcb;fill-opacity:1"
       inkscape:export-filename="/home/nathan/Projects/mozcc2/trunk/chrome/skin/images/by-nc-nd.png"
       inkscape:export-xdpi="21.09375"
       inkscape:export-ydpi="21.09375" />
    <g
       id="g3126"
       transform="translate(200,65.5752)"
       style="fill:#cbcbcb;fill-opacity:1"
       inkscape:export-filename="/home/nathan/Projects/mozcc2/trunk/chrome/skin/images/by-nc-sa.png"
       inkscape:export-xdpi="21.09375"
       inkscape:export-ydpi="21.09375">
						<path
   i:knockout="Off"
   clip-rule="evenodd"
   d="M 31.959,176.787 C 23.095,176.787 15.592,179.88 9.452,186.067 C 3.149,192.467 0,200.04 0,208.787 C 0,217.533 3.149,225.054 9.452,231.347 C 15.752,237.641 23.256,240.787 31.959,240.787 C 40.77,240.787 48.407,237.614 54.869,231.267 C 60.956,225.241 64,217.746 64,208.787 C 64,199.827 60.903,192.253 54.709,186.067 C 48.513,179.88 40.93,176.787 31.959,176.787 z M 32.04,182.546 C 39.303,182.546 45.47,185.106 50.544,190.227 C 55.67,195.293 58.232,201.479 58.232,208.787 C 58.232,216.146 55.723,222.254 50.703,227.107 C 45.416,232.334 39.195,234.947 32.04,234.947 C 24.884,234.947 18.716,232.36 13.537,227.187 C 8.358,222.014 5.767,215.88 5.767,208.787 C 5.767,201.693 8.384,195.507 13.617,190.227 C 18.637,185.105 24.777,182.546 32.04,182.546 z "
   id="path3128"
   style="fill:#cbcbcb;fill-opacity:1;fill-rule:evenodd" />

						<g
   id="g3130"
   style="fill:#cbcbcb;fill-opacity:1">
							<path
   i:knockout="Off"
   clip-rule="evenodd"
   d="M 15.235,217.597 L 23.263,217.597 C 27.748,217.597 30.474,216.211 30.474,212.573 C 30.474,209.974 28.541,208.712 26.138,208.539 L 26.138,208.489 C 28.542,207.945 29.83,206.757 29.83,204.505 C 29.83,201.213 27.427,199.976 23.858,199.976 L 15.235,199.976 L 15.235,217.597 L 15.235,217.597 z M 19.497,210.172 L 23.883,210.172 C 25.518,210.172 26.064,210.816 26.064,212.276 C 26.064,213.415 25.419,214.33 23.09,214.33 L 19.497,214.33 L 19.497,210.172 z M 19.447,203.243 L 23.114,203.243 C 24.576,203.243 25.418,203.59 25.418,205.075 C 25.418,206.362 24.526,206.907 23.114,206.907 L 19.447,206.907 L 19.447,203.243 z "
   id="path3132"
   style="fill:#cbcbcb;fill-opacity:1;fill-rule:evenodd" />

							<polygon
   i:knockout="Off"
   clip-rule="evenodd"
   points="36.052,217.597 40.462,217.597 40.462,209.38 47.153,199.976 41.999,199.976 38.257,206.064 34.515,199.976 29.361,199.976 36.052,209.38 36.052,217.597 "
   id="polygon3134"
   style="fill:#cbcbcb;fill-opacity:1;fill-rule:evenodd" />

							<path
   i:knockout="Off"
   clip-rule="evenodd"
   d="M 48.765,208.787 L 48.765,204.629 L 44.75,204.629 L 44.75,208.787 L 48.765,208.787 z M 48.765,217.597 L 48.765,213.439 L 44.75,213.439 L 44.75,217.597 L 48.765,217.597 z "
   id="path3136"
   style="fill:#cbcbcb;fill-opacity:1;fill-rule:evenodd" />

						</g>

					</g>
    <path
       i:knockout="Off"
       d="M 311.959,242.36218 C 320.93,242.36218 328.513,245.45618 334.709,251.64118 C 340.903,257.82918 344,265.40218 344,274.36218 C 344,283.32218 340.956,290.81618 334.869,296.84218 C 328.407,303.18918 320.77,306.36218 311.959,306.36218 C 303.255,306.36218 295.752,303.21618 289.452,296.92318 C 283.149,290.63018 280,283.10818 280,274.36218 C 280,265.61618 283.149,258.04218 289.452,251.64118 C 295.592,245.45618 303.095,242.36218 311.959,242.36218 z M 287.199,265.76618 C 286.244,268.46618 285.766,271.33118 285.766,274.36218 C 285.766,281.45618 288.356,287.58918 293.536,292.76118 C 298.716,297.93518 304.883,300.52218 312.039,300.52218 C 319.194,300.52218 325.415,297.91018 330.702,292.68218 C 332.472,290.97118 333.93,289.10618 335.074,287.08318 L 323.011,281.71118 C 322.194,285.77018 318.576,288.51218 314.203,288.83418 L 314.203,293.76718 L 310.53,293.76718 L 310.53,288.83418 C 306.938,288.79318 303.469,287.32518 300.816,285.00218 L 305.224,280.55818 C 307.347,282.55618 309.469,283.45418 312.367,283.45418 C 314.244,283.45418 316.326,282.72018 316.326,280.27318 C 316.326,279.40618 315.989,278.80318 315.461,278.35018 L 312.411,276.99218 L 308.244,275.66718 C 306.191,275.00418 304.614,274.19118 303.543,273.04518 L 287.199,265.76618 z M 312.04,248.12118 C 304.777,248.12118 298.637,250.68218 293.617,255.80218 C 292.251,257.18218 291.062,258.62118 290.053,260.12418 L 302.286,265.57018 C 303.39,262.17618 306.616,260.12018 310.531,259.88918 L 310.531,254.95618 L 314.204,254.95618 L 314.204,259.88918 C 316.735,260.01118 319.511,260.70418 322.245,262.82518 L 318.041,267.14618 C 316.49,266.04518 314.531,265.27018 312.571,265.27018 C 310.98,265.27018 308.735,265.76018 308.735,267.75718 C 308.735,268.06218 308.837,268.33018 309.023,268.56918 L 313.115,270.39018 L 316.165,271.34418 C 318.129,271.94018 319.804,272.70918 321.023,273.91118 L 337.419,281.21218 C 337.962,279.06418 338.232,276.77918 338.232,274.36018 C 338.232,267.05218 335.67,260.86718 330.544,255.79918 C 325.469,250.68118 319.302,248.12118 312.04,248.12118 z "
       id="path3138"
       style="fill:#cbcbcb;fill-opacity:1"
       inkscape:export-filename="/home/nathan/Projects/mozcc2/trunk/chrome/skin/images/by-nc-sa.png"
       inkscape:export-xdpi="21.09375"
       inkscape:export-ydpi="21.09375" />
    <g
       id="g3140"
       transform="translate(360,-25.2548)"
       inkscape:export-filename="/home/nathan/Projects/mozcc2/trunk/chrome/skin/images/by-nc-sa.png"
       inkscape:export-xdpi="21.09375"
       inkscape:export-ydpi="21.09375"
       style="fill:#cbcbcb;fill-opacity:1">
						<path
   i:knockout="Off"
   clip-rule="evenodd"
   d="M 31.959,267.617 C 23.095,267.617 15.592,270.71 9.452,276.896 C 3.149,283.296 0,290.871 0,299.617 C 0,308.363 3.149,315.885 9.452,322.178 C 15.752,328.472 23.256,331.617 31.959,331.617 C 40.77,331.617 48.407,328.444 54.869,322.097 C 60.956,316.071 64,308.576 64,299.617 C 64,290.658 60.903,283.084 54.709,276.896 C 48.513,270.709 40.93,267.617 31.959,267.617 z M 32.04,273.375 C 39.303,273.375 45.47,275.936 50.544,281.057 C 55.67,286.122 58.232,292.31 58.232,299.617 C 58.232,306.976 55.723,313.084 50.703,317.938 C 45.416,323.165 39.195,325.777 32.04,325.777 C 24.884,325.777 18.717,323.19 13.537,318.017 C 8.357,312.843 5.767,306.71 5.767,299.617 C 5.767,292.524 8.384,286.337 13.617,281.057 C 18.637,275.936 24.777,273.375 32.04,273.375 z "
   id="path3142"
   style="fill:#cbcbcb;fill-opacity:1;fill-rule:evenodd" />

						<path
   i:knockout="Off"
   d="M 17.775,295.1 C 19.052,287.049 24.719,282.745 31.822,282.745 C 42.038,282.745 48.264,290.159 48.264,300.043 C 48.264,309.689 41.639,317.182 31.662,317.182 C 24.798,317.182 18.653,312.957 17.535,304.667 L 25.597,304.667 C 25.836,308.972 28.63,310.486 32.62,310.486 C 37.169,310.486 40.123,306.26 40.123,299.803 C 40.123,293.028 37.568,289.441 32.779,289.441 C 29.268,289.441 26.235,290.716 25.596,295.1 L 27.939,295.087 L 21.594,301.432 L 15.249,295.087 L 17.775,295.1 z "
   id="path3144"
   style="fill:#cbcbcb;fill-opacity:1" />

					</g>
    <g
       id="g3090"
       transform="translate(200,145.5752)"
       style="fill:#cbcbcb;fill-opacity:1"
       inkscape:export-filename="/home/nathan/Projects/mozcc2/trunk/chrome/skin/images/by-nc.png"
       inkscape:export-xdpi="21.09375"
       inkscape:export-ydpi="21.09375">
						<path
   i:knockout="Off"
   clip-rule="evenodd"
   d="M 31.959,176.787 C 23.095,176.787 15.592,179.88 9.452,186.067 C 3.149,192.467 0,200.04 0,208.787 C 0,217.533 3.149,225.054 9.452,231.347 C 15.752,237.641 23.256,240.787 31.959,240.787 C 40.77,240.787 48.407,237.614 54.869,231.267 C 60.956,225.241 64,217.746 64,208.787 C 64,199.827 60.903,192.253 54.709,186.067 C 48.513,179.88 40.93,176.787 31.959,176.787 z M 32.04,182.546 C 39.303,182.546 45.47,185.106 50.544,190.227 C 55.67,195.293 58.232,201.479 58.232,208.787 C 58.232,216.146 55.723,222.254 50.703,227.107 C 45.416,232.334 39.195,234.947 32.04,234.947 C 24.884,234.947 18.716,232.36 13.537,227.187 C 8.358,222.014 5.767,215.88 5.767,208.787 C 5.767,201.693 8.384,195.507 13.617,190.227 C 18.637,185.105 24.777,182.546 32.04,182.546 z "
   id="path3092"
   style="fill:#cbcbcb;fill-opacity:1;fill-rule:evenodd" />

						<g
   id="g3094"
   style="fill:#cbcbcb;fill-opacity:1">
							<path
   i:knockout="Off"
   clip-rule="evenodd"
   d="M 15.235,217.597 L 23.263,217.597 C 27.748,217.597 30.474,216.211 30.474,212.573 C 30.474,209.974 28.541,208.712 26.138,208.539 L 26.138,208.489 C 28.542,207.945 29.83,206.757 29.83,204.505 C 29.83,201.213 27.427,199.976 23.858,199.976 L 15.235,199.976 L 15.235,217.597 L 15.235,217.597 z M 19.497,210.172 L 23.883,210.172 C 25.518,210.172 26.064,210.816 26.064,212.276 C 26.064,213.415 25.419,214.33 23.09,214.33 L 19.497,214.33 L 19.497,210.172 z M 19.447,203.243 L 23.114,203.243 C 24.576,203.243 25.418,203.59 25.418,205.075 C 25.418,206.362 24.526,206.907 23.114,206.907 L 19.447,206.907 L 19.447,203.243 z "
   id="path3096"
   style="fill:#cbcbcb;fill-opacity:1;fill-rule:evenodd" />

							<polygon
   i:knockout="Off"
   clip-rule="evenodd"
   points="36.052,217.597 40.462,217.597 40.462,209.38 47.153,199.976 41.999,199.976 38.257,206.064 34.515,199.976 29.361,199.976 36.052,209.38 36.052,217.597 "
   id="polygon3098"
   style="fill:#cbcbcb;fill-opacity:1;fill-rule:evenodd" />

							<path
   i:knockout="Off"
   clip-rule="evenodd"
   d="M 48.765,208.787 L 48.765,204.629 L 44.75,204.629 L 44.75,208.787 L 48.765,208.787 z M 48.765,217.597 L 48.765,213.439 L 44.75,213.439 L 44.75,217.597 L 48.765,217.597 z "
   id="path3100"
   style="fill:#cbcbcb;fill-opacity:1;fill-rule:evenodd" />

						</g>

					</g>
    <path
       i:knockout="Off"
       d="M 311.959,322.36218 C 320.93,322.36218 328.513,325.45618 334.709,331.64118 C 340.903,337.82918 344,345.40218 344,354.36218 C 344,363.32218 340.956,370.81618 334.869,376.84218 C 328.407,383.18918 320.77,386.36218 311.959,386.36218 C 303.255,386.36218 295.752,383.21618 289.452,376.92318 C 283.149,370.63018 280,363.10818 280,354.36218 C 280,345.61618 283.149,338.04218 289.452,331.64118 C 295.592,325.45618 303.095,322.36218 311.959,322.36218 z M 287.199,345.76618 C 286.244,348.46618 285.766,351.33118 285.766,354.36218 C 285.766,361.45618 288.356,367.58918 293.536,372.76118 C 298.716,377.93518 304.883,380.52218 312.039,380.52218 C 319.194,380.52218 325.415,377.91018 330.702,372.68218 C 332.472,370.97118 333.93,369.10618 335.074,367.08318 L 323.011,361.71118 C 322.194,365.77018 318.576,368.51218 314.203,368.83418 L 314.203,373.76718 L 310.53,373.76718 L 310.53,368.83418 C 306.938,368.79318 303.469,367.32518 300.816,365.00218 L 305.224,360.55818 C 307.347,362.55618 309.469,363.45418 312.367,363.45418 C 314.244,363.45418 316.326,362.72018 316.326,360.27318 C 316.326,359.40618 315.989,358.80318 315.461,358.35018 L 312.411,356.99218 L 308.244,355.66718 C 306.191,355.00418 304.614,354.19118 303.543,353.04518 L 287.199,345.76618 z M 312.04,328.12118 C 304.777,328.12118 298.637,330.68218 293.617,335.80218 C 292.251,337.18218 291.062,338.62118 290.053,340.12418 L 302.286,345.57018 C 303.39,342.17618 306.616,340.12018 310.531,339.88918 L 310.531,334.95618 L 314.204,334.95618 L 314.204,339.88918 C 316.735,340.01118 319.511,340.70418 322.245,342.82518 L 318.041,347.14618 C 316.49,346.04518 314.531,345.27018 312.571,345.27018 C 310.98,345.27018 308.735,345.76018 308.735,347.75718 C 308.735,348.06218 308.837,348.33018 309.023,348.56918 L 313.115,350.39018 L 316.165,351.34418 C 318.129,351.94018 319.804,352.70918 321.023,353.91118 L 337.419,361.21218 C 337.962,359.06418 338.232,356.77918 338.232,354.36018 C 338.232,347.05218 335.67,340.86718 330.544,335.79918 C 325.469,330.68118 319.302,328.12118 312.04,328.12118 z "
       id="path3102"
       style="fill:#cbcbcb;fill-opacity:1"
       inkscape:export-filename="/home/nathan/Projects/mozcc2/trunk/chrome/skin/images/by-nc.png"
       inkscape:export-xdpi="21.09375"
       inkscape:export-ydpi="21.09375" />
  </g>
</svg>
